Coordinates
version=1
nRows=20
nColumns=38
inDegrees=no

Units are S.I. units (second, meters, Newtons, ...)
If the header above contains a line with 'inDegrees', this indicates whether rotational values are in degrees (yes) or radians (no).

endheader
time	pelvis_tilt	pelvis_list	pelvis_rotation	pelvis_tx	pelvis_ty	pelvis_tz	hip_flexion_r	hip_adduction_r	hip_rotation_r	knee_angle_r	ankle_angle_r	subtalar_angle_r	mtp_angle_r	hip_flexion_l	hip_adduction_l	hip_rotation_l	knee_angle_l	ankle_angle_l	subtalar_angle_l	mtp_angle_l	lumbar_extension	lumbar_bending	lumbar_rotation	arm_flex_r	arm_add_r	arm_rot_r	elbow_flex_r	pro_sup_r	wrist_flex_r	wrist_dev_r	arm_flex_l	arm_add_l	arm_rot_l	elbow_flex_l	pro_sup_l	wrist_flex_l	wrist_dev_l
0.87	3.06783	1.49594	-1.39886	0.633053	0.468654	0.949332	0.476186	-0.0739393	-0.164595	0.477436	0.133625	0	0	-0.299107	0.109213	-0.0646104	0.0684747	0.251222	0	0	-0.176446	-0.0363432	-0.077783	0.0635674	-0.0435973	-0.285307	0.16557	1.47464	0	0	-0.103291	-0.544489	0.59844	0.822611	0.679584	0	0
0.88	2.9841	1.49331	-1.31856	0.63331	0.479943	0.94787	0.467949	-0.0621344	-0.188783	0.422336	0.140662	0	0	-0.316486	0.101637	-0.0688304	0.0636407	0.257744	0	0	-0.181023	-0.0289672	-0.0734088	0.0657393	-0.0429678	-0.281666	0.165049	1.47019	0	0	-0.0981232	-0.542629	0.597118	0.822652	0.684688	0	0
0.89	2.91208	1.48976	-1.25103	0.633733	0.491411	0.946367	0.458308	-0.0485595	-0.209542	0.368395	0.148903	0	0	-0.333766	0.0946302	-0.0750868	0.0607351	0.264375	0	0	-0.186088	-0.0222653	-0.0682876	0.0674003	-0.0421824	-0.276441	0.165119	1.46226	0	0	-0.0933103	-0.541286	0.596468	0.822762	0.691615	0	0
0.9	2.85393	1.48641	-1.19691	0.634215	0.503139	0.944781	0.448461	-0.0348392	-0.228167	0.317047	0.156328	0	0	-0.34952	0.0881271	-0.0821641	0.0610012	0.27197	0	0	-0.190547	-0.0166229	-0.0642665	0.0683448	-0.0410911	-0.269681	0.165852	1.45492	0	0	-0.0893637	-0.541172	0.597896	0.823348	0.696197	0	0
0.91	2.80208	1.48307	-1.14837	0.634719	0.515125	0.943193	0.43646	-0.019988	-0.24229	0.264652	0.160137	0	0	-0.363809	0.0814004	-0.0899599	0.0644236	0.280029	0	0	-0.194352	-0.0112565	-0.0610902	0.0687887	-0.0400006	-0.261771	0.166888	1.44775	0	0	-0.0854112	-0.541795	0.602615	0.822423	0.700048	0	0
0.92	2.75497	1.48016	-1.105	0.635347	0.527353	0.941598	0.42341	-0.00406887	-0.249924	0.212428	0.158568	0	0	-0.375815	0.0747921	-0.100234	0.0718045	0.288809	0	0	-0.197147	-0.00645911	-0.0575578	0.0687002	-0.0389819	-0.251993	0.168142	1.4386	0	0	-0.0819837	-0.542596	0.608049	0.820658	0.703676	0	0
0.93	2.71683	1.47747	-1.07019	0.635973	0.539765	0.940038	0.409915	0.0114965	-0.251773	0.163777	0.152789	0	0	-0.385554	0.0683878	-0.112014	0.0839107	0.297886	0	0	-0.199575	-0.00232321	-0.0544576	0.0684334	-0.0380261	-0.241458	0.169085	1.42923	0	0	-0.0790156	-0.543291	0.6133	0.81813	0.707383	0	0
0.94	2.69016	1.47554	-1.04623	0.636494	0.552289	0.938484	0.398338	0.0248141	-0.251396	0.124397	0.146202	0	0	-0.392069	0.0625051	-0.125241	0.102038	0.307292	0	0	-0.201635	0.000812405	-0.0522941	0.0681852	-0.0371146	-0.231267	0.169887	1.42084	0	0	-0.0767845	-0.543988	0.617663	0.815699	0.711618	0	0
0.95	2.68068	1.47632	-1.03943	0.636817	0.564995	0.936787	0.39498	0.0322462	-0.257707	0.106237	0.146911	0	0	-0.396165	0.059634	-0.134251	0.121269	0.31375	0	0	-0.201667	0.00141445	-0.0505543	0.0680068	-0.036088	-0.228118	0.169675	1.41948	0	0	-0.075115	-0.544824	0.622809	0.813191	0.713128	0	0
0.96	2.67082	1.47682	-1.03139	0.636975	0.577952	0.935108	0.394558	0.0380398	-0.265697	0.102814	0.149509	0	0	-0.397237	0.0553937	-0.146331	0.147753	0.323448	0	0	-0.201487	0.00287832	-0.049695	0.0671634	-0.035621	-0.224594	0.169901	1.41829	0	0	-0.0737641	-0.545735	0.629716	0.810395	0.714542	0	0
0.97	2.66009	1.47832	-1.02143	0.636869	0.591151	0.933318	0.400207	0.0402766	-0.27835	0.118353	0.155201	0	0	-0.395081	0.0507427	-0.157844	0.179095	0.333458	0	0	-0.199692	0.00470298	-0.0498943	0.065429	-0.0358075	-0.221064	0.170573	1.41709	0	0	-0.0737735	-0.545912	0.635206	0.807807	0.715546	0	0
0.98	2.64685	1.48089	-1.00742	0.636406	0.604644	0.931426	0.410325	0.0389308	-0.292113	0.148729	0.160813	0	0	-0.390576	0.0457152	-0.166332	0.213229	0.341884	0	0	-0.196077	0.00713045	-0.0517738	0.0627851	-0.0366957	-0.217125	0.171417	1.41621	0	0	-0.0757649	-0.545162	0.639091	0.804991	0.716254	0	0
0.99	2.62982	1.48433	-0.987492	0.635523	0.618524	0.929492	0.421359	0.0352089	-0.30328	0.186489	0.164362	0	0	-0.384401	0.0403086	-0.170502	0.249126	0.347435	0	0	-0.190584	0.0103846	-0.05587	0.0588861	-0.0382753	-0.212978	0.172615	1.41557	0	0	-0.0796526	-0.543397	0.641833	0.801829	0.716657	0	0
1	2.60711	1.48894	-0.958307	0.634153	0.632901	0.927511	0.431225	0.0293148	-0.310374	0.225443	0.166856	0	0	-0.376185	0.0342176	-0.169353	0.286736	0.349446	0	0	-0.182375	0.014284	-0.0635355	0.0528837	-0.0402117	-0.209361	0.175192	1.41506	0	0	-0.0853661	-0.540777	0.64351	0.797895	0.716351	0	0
1.01	2.57999	1.4946	-0.920034	0.632273	0.647758	0.925521	0.438191	0.0212909	-0.316198	0.259585	0.168266	0	0	-0.365581	0.0272092	-0.162714	0.326627	0.347992	0	0	-0.171683	0.0185516	-0.0757405	0.045057	-0.0423642	-0.205682	0.178138	1.41492	0	0	-0.0928034	-0.537509	0.644382	0.792637	0.714988	0	0
1.02	2.54214	1.49929	-0.871972	0.630536	0.662635	0.923728	0.441404	0.0160229	-0.31912	0.28416	0.158811	0	0	-0.353169	0.0190844	-0.157634	0.369873	0.342895	0	0	-0.161554	0.0237594	-0.0863974	0.0369555	-0.044887	-0.201691	0.181672	1.41478	0	0	-0.0997564	-0.533889	0.646094	0.786336	0.712737	0	0
1.03	2.47507	1.50248	-0.796275	0.629145	0.677365	0.922281	0.443636	0.0144496	-0.322436	0.301328	0.128409	0	0	-0.337124	0.0081998	-0.155604	0.418362	0.333507	0	0	-0.151993	0.0309434	-0.0942056	0.0283316	-0.0474795	-0.197584	0.187218	1.41392	0	0	-0.104304	-0.530233	0.651375	0.778274	0.708961	0	0
1.04	2.34413	1.50418	-0.6582	0.628111	0.691747	0.921244	0.450687	0.015889	-0.327094	0.32056	0.0859661	0	0	-0.313307	-0.00685119	-0.155805	0.474934	0.318367	0	0	-0.141136	0.0413789	-0.0991271	0.0196176	-0.0502717	-0.193493	0.195177	1.41116	0	0	-0.106428	-0.52534	0.658215	0.767785	0.702243	0	0
1.05	2.18697	1.50441	-0.49888	0.627422	0.705656	0.920751	0.464964	0.0170014	-0.327311	0.353183	0.057294	0	0	-0.284348	-0.0209009	-0.1568	0.535469	0.293248	0	0	-0.13066	0.0527026	-0.0989314	0.0130054	-0.0534555	-0.189641	0.203098	1.40616	0	0	-0.107305	-0.518975	0.664162	0.757274	0.692723	0	0
1.06	2.00216	1.50425	-0.315546	0.62678	0.719199	0.920523	0.486094	0.0167812	-0.321352	0.396002	0.047594	0	0	-0.248076	-0.0325981	-0.156298	0.601348	0.25857	0	0	-0.118377	0.0638823	-0.0961781	0.00835715	-0.0572399	-0.181533	0.209547	1.39753	0	0	-0.108818	-0.512067	0.670458	0.749548	0.673899	0	0
